# xmcd
#
# Track frame offsets:
#	150
#	10560
#	20922
#	29684
#	39939
#	54919
#	64805
#	72889
#	85185
#	98104
#	108214
#	117653
#	130350
#
# Disc length: 1862 seconds
#
# Revision: 1
# Processed by: cddbd v1.5.2PL0 Copyright (c) Steve Scherf et al.
# Submitted via: EasyCDDAExtractor 10.5.1.1
#
DISCID=aa07440d
DTITLE=אומנים שונים - ישראל רוקדת - דיסק 2
DYEAR=1900
DGENRE=Country
TTITLE0=אם בארזים
TTITLE1=דלעונה 2
TTITLE2=בת צורים
TTITLE3=קלו רגליים
TTITLE4=בת יפתח
TTITLE5=דבקה דייגים
TTITLE6=באנה הבנות
TTITLE7=ניגון עתיק and באלעבאסטע
TTITLE8=ניצני שלום and בואי תמה
TTITLE9=הנה מה טוב
TTITLE10=עז וכבש
TTITLE11=טעם המן
TTITLE12=מזרה ישראל
EXTD=
EXTT0=
EXTT1=
EXTT2=
EXTT3=
EXTT4=
EXTT5=
EXTT6=
EXTT7=
EXTT8=
EXTT9=
EXTT10=
EXTT11=
EXTT12=
PLAYORDER=
